<svg data-v-fde0c5aa="" xmlns="http://www.w3.org/2000/svg" viewBox="0 0 300 300" class="iconAbove"><!----><defs data-v-fde0c5aa=""><!----></defs><rect data-v-fde0c5aa="" fill="transparent" x="0" y="0" width="300px" height="300px" class="logo-background-square"></rect><defs data-v-fde0c5aa=""><!----></defs><g data-v-fde0c5aa="" id="16b16d54-7ddc-403b-b3af-631462c6ed4d" fill="#000000"><path d=""></path></g><defs data-v-fde0c5aa=""><linearGradient data-v-fde0c5aa="" gradientTransform="rotate(25)" id="b1d08c3f-0a3e-406f-8430-4cd9e74a7583" x1="0%" y1="0%" x2="100%" y2="0%"><stop data-v-fde0c5aa="" offset="0%" stop-color="#1E0B36" stop-opacity="1"></stop><stop data-v-fde0c5aa="" offset="100%" stop-color="#CA3782" stop-opacity="1"></stop></linearGradient></defs><g data-v-fde0c5aa="" id="fcd9727b-a226-4595-b14e-97cf07e9523c" stroke="none" fill="url(#b1d08c3f-0a3e-406f-8430-4cd9e74a7583)"><path d="M233.722 230.196H50.937c-17.003 0-30.837-13.834-30.837-30.838v-96.852c0-17.003 13.834-30.836 30.837-30.836h182.785c17.003 0 30.837 13.833 30.837 30.836v96.852c0 17.004-13.834 30.838-30.837 30.838zM50.937 87.753c-8.136 0-14.754 6.618-14.754 14.753v96.852c0 8.136 6.618 14.755 14.754 14.755h182.785c8.136 0 14.754-6.619 14.754-14.755v-96.852c0-8.135-6.618-14.753-14.754-14.753H50.937z"></path><path d="M142.329 205.613c-30.151 0-54.682-24.53-54.682-54.682s24.53-54.681 54.682-54.681 54.682 24.529 54.682 54.681c0 30.152-24.53 54.682-54.682 54.682zm0-93.28c-21.283 0-38.599 17.315-38.599 38.598s17.315 38.599 38.599 38.599 38.599-17.315 38.599-38.599-17.316-38.598-38.599-38.598z"></path><path d="M142.329 145.362c3.072 0 5.571 2.498 5.571 5.569s-2.499 5.57-5.571 5.57-5.571-2.499-5.571-5.57 2.499-5.569 5.571-5.569m0-28.949c-19.065 0-34.52 15.453-34.52 34.519 0 19.063 15.455 34.52 34.52 34.52s34.52-15.456 34.52-34.52c0-19.066-15.454-34.519-34.52-34.519zM226.492 119.918h-26.793c-7.243 0-13.138-5.894-13.138-13.139v-1.063c0-7.245 5.895-13.139 13.138-13.139h26.793c7.243 0 13.138 5.894 13.138 13.139v1.063c0 7.246-5.895 13.139-13.138 13.139zm-26.793-19.299a5.103 5.103 0 0 0-5.097 5.097v1.063a5.103 5.103 0 0 0 5.097 5.097h26.793a5.103 5.103 0 0 0 5.097-5.097v-1.063a5.103 5.103 0 0 0-5.097-5.097h-26.793zM102.926 68.454H53.874a8.043 8.043 0 0 1 0-16.084h49.053a8.043 8.043 0 0 1-.001 16.084z"></path></g><!----></svg>